<svg viewBox="0 0 1024 1024" height="1024" width="1024" version="1.1" fill="none"
     xmlns="http://www.w3.org/2000/svg">
    <defs>
        <clipPath id="master_svg0_33_8267">
            <rect rx="0" height="1024" width="1024" y="0" x="0"></rect>
        </clipPath>
    </defs>
    <g clip-path="url(#master_svg0_33_8267)">
        <g>
            <g>
                <path style="mix-blend-mode:passthrough" fill-opacity="1" fill="#525566"
                      d="M7.876922607421875,556.9300842285156L8.097476607421875,592.7306842285157C8.097476607421875,598.6619842285156,12.051692607421874,604.8059842285156,19.960122607421873,609.4218842285156L605.4519226074219,949.6020842285157C621.2609226074219,958.8180842285155,646.7269226074219,958.8180842285155,662.7639226074218,949.6020842285157L1004.2609226074219,752.3880842285156C1012.1669226074218,747.7800842285156,1016.1269226074219,741.8490842285156,1016.1269226074219,735.7050842285156L1016.1269226074219,699.9120842285156C1016.1269226074219,706.0560842285156,1012.1669226074218,711.9870842285156,1004.0479226074219,716.6030842285156L662.7639226074218,913.8020842285157C646.7349226074218,923.0260842285156,621.0399226074219,923.0260842285156,605.2229226074219,913.8020842285157L19.960122607421873,573.6212842285156C12.051692607421874,569.0132842285157,7.876922607421875,562.8613542285157,7.876922607421875,556.9300842285156Z"></path>
            </g>
            <g>
                <path style="mix-blend-mode:passthrough" fill-opacity="1" fill="#5B5E71"
                      d="M19.904924023437502,540.4599865722656C3.9148140234374997,549.6909865722656,3.9699540234375,564.4999865722656,19.8577240234375,573.7319865722657L605.2081240234374,913.9039865722656C621.0951240234375,923.1359865722657,646.6641240234375,923.2149865722656,662.6541240234375,913.9829865722656L1004.0791240234375,716.8629865722656C1020.0671240234375,707.6319865722656,1020.0071240234375,692.8229865722656,1004.1261240234375,683.5909865722656L418.7691240234375,343.41830657226564C402.8891240234375,334.1865565722656,377.3121240234375,334.10778657226564,361.3301240234375,343.3395365722656L19.904924023437502,540.4599865722656Z"></path>
            </g>
            <g>
                <path style="mix-blend-mode:passthrough" fill-opacity="1" fill="#525566"
                      d="M191.6691721875,480.64982563476565C188.3135981875,482.5875256347656,188.1639401875,485.76982563476565,191.4958821875,487.6997256347656C194.8278221875,489.63742563476563,200.3101421875,489.55862563476563,203.6578421875,487.6209256347656L269.5089421875,449.60687563476563C272.8644421875,447.6691556347656,272.8802421875,444.56564563476564,269.5483421875,442.63580563476563C266.2163421875,440.6980896347656,260.86794218750003,440.6980896347656,257.5202421875,442.63580563476563L191.6691721875,480.64982563476565ZM782.7142421875,787.0625256347656C775.1992421875,791.4025256347657,775.0262421875,798.4525256347656,782.6272421875,802.8635256347657C790.0872421875,807.1955256347655,802.2492421875,807.1165256347656,809.7632421875,802.7845256347656C817.4042421875,798.3735256347657,817.5772421875,791.3235256347657,810.1182421875,786.9915256347656C802.5242421875,782.5805256347656,790.3542421875,782.6585256347656,782.7062421875,787.0695256347656L782.7142421875,787.0625256347656Z"></path>
            </g>
            <g>
                <path style="mix-blend-mode:passthrough" fill-opacity="1" fill="#FFFFFF"
                      d="M940.0788852539063,686.3164006347656L606.8068852539062,878.7184006347657L77.31988525390625,571.0144006347656L410.5928852539063,378.6044006347656L940.0788852539063,686.3164006347656ZM606.8858852539063,865.8704006347657L666.1668852539062,831.6454006347656L388.59188525390624,533.4644006347656L251.47088525390626,552.7394006347656L390.63988525390624,740.1944006347655L606.8858852539063,865.8704006347657ZM410.51388525390627,391.6092006347656L322.0088852539062,442.7147006347656L493.80388525390623,627.2314006347656L783.5808852539062,608.4134006347656L410.51388525390627,391.6092006347656ZM917.7558852539063,686.3874006347656L797.7118852539063,616.6214006347657L501.77588525390627,635.9044006347656L677.8248852539062,824.9034006347656L917.7558852539063,686.3874006347656ZM360.52688525390624,722.7004006347656L235.95288525390626,554.9054006347656L103.91238525390625,573.5744006347657L360.52688525390624,722.7004006347656ZM113.99488525390625,562.7984006347656L380.75488525390625,525.1784006347657L310.33488525390624,449.4495006347656L113.99488525390625,562.7984006347656Z"></path>
            </g>
            <g>
                <path style="mix-blend-mode:passthrough" fill-opacity="1" fill="#4C7891"
                      d="M113.99481201171875,562.8066154785156L380.75481201171874,525.1783154785156L310.3348120117188,449.4496154785156L113.99481201171875,562.8066154785156Z"></path>
            </g>
            <g>
                <path style="mix-blend-mode:passthrough" fill-opacity="1" fill="#9AD898"
                      d="M322.0085754394531,442.71478344726563L493.8045754394531,627.2312834472657L783.5805754394531,608.4132834472656L410.5136754394531,391.6092834472656L322.0085754394531,442.71478344726563Z"></path>
            </g>
            <g>
                <path style="mix-blend-mode:passthrough" fill-opacity="1" fill="#4C7891"
                      d="M251.47076416015625,552.7395521972657L390.63976416015623,740.1947521972656L606.8857641601562,865.8707521972656L666.1667641601563,831.6457521972657L388.59276416015626,533.4647521972656L251.47076416015625,552.7395521972657Z"></path>
            </g>
            <g>
                <path style="mix-blend-mode:passthrough" fill-opacity="1" fill="#9AD898"
                      d="M501.7757263183594,635.9037021972656L677.8247263183594,824.9100021972656L917.7557263183594,686.3869021972656L797.7117263183593,616.6210021972656L501.7757263183594,635.9037021972656Z"></path>
            </g>
            <g>
                <path style="mix-blend-mode:passthrough" fill-opacity="1" fill="#FED57A"
                      d="M103.912353515625,573.5661701660156L360.526353515625,722.7076701660156L235.953353515625,554.9056701660156L103.912353515625,573.5661701660156Z"></path>
            </g>
            <g>
                <path style="mix-blend-mode:passthrough" fill-opacity="1" fill="#BAC1CE"
                      d="M210.684046953125,698.1634831347657C206.981906953125,696.0288431347657,204.114700353125,697.8562931347657,204.098937988325,702.1177031347656C204.083190953125,706.3712431347657,206.934626953125,711.3100631347656,210.636776953125,713.4525631347656L246.334976953125,734.0586631347657C250.037176953125,736.1932631347656,253.085476953125,734.6572631347656,253.09337695312502,730.4037631347657C253.109176953125,726.1501631347656,250.084376953125,720.9120631347656,246.382276953125,718.7773631347657L210.684046953125,698.1634831347657Z"></path>
            </g>
            <g>
                <path style="mix-blend-mode:passthrough" fill-opacity="1" fill="#D4DAE8"
                      d="M209.7860431640625,695.5554771972656L206.0918431640625,697.6586771972657C207.1473431640625,697.1308771972656,208.9983431640625,697.1308771972656,210.58164316406248,698.1864771972656L246.4377431640625,718.7609771972657C250.1397431640625,720.8719771972657,253.0307431640625,726.1416771972656,253.0307431640625,730.3636771972656C253.0307431640625,732.4746771972656,252.24274316406252,733.7901771972656,251.1867431640625,734.5778771972656L254.8817431640625,732.4746771972656C256.19674316406247,731.6790771972657,256.7247431640625,730.3636771972656,256.7247431640625,728.2526771972656C256.7247431640625,724.0305771972656,253.8257431640625,718.7609771972657,250.1317431640625,716.6499771972656L214.5279431640625,696.0832771972656C212.6847431640625,695.0277771972657,210.8415431640625,694.7599771972656,209.7860431640625,695.5554771972656ZM144.9117431640625,662.5906071972656C146.2350631640625,661.8028871972656,147.8183331640625,661.8028871972656,149.6615331640625,662.8505571972656L185.2652431640625,683.4250771972656C188.9516431640625,685.5282771972657,192.1181431640625,690.8057771972656,191.8503431640625,695.0277771972657C191.8503431640625,697.1309771972656,191.3304431640625,698.7141771972656,190.00714316406248,699.2419771972657L193.7014431640625,697.1309771972656C195.0168431640625,696.3432771972656,195.8124431640625,695.0277771972657,195.8124431640625,692.9167771972657C195.8124431640625,688.6947771972656,192.6459431640625,683.4250771972656,188.9595431640625,681.3140771972656L153.35582316406249,660.7395321972656C151.5047431640625,659.6919251972656,149.9214831640625,659.6919251972656,148.6060331640625,660.4795841972656L144.9117431640625,662.5906071972656Z"></path>
            </g>
            <g>
                <path style="mix-blend-mode:passthrough" fill-opacity="1" fill="#BAC1CE"
                      d="M149.7402815234375,662.9765934472656C146.0381315234375,660.8419484472656,142.9976349234375,662.5748594472657,142.9818725586375,666.8283984472656C142.9661255234375,671.0819384472657,145.9908615234375,676.1231084472656,149.6930115234375,678.2578084472656L185.2179115234375,698.7694084472656C188.9201115234375,700.9119084472657,191.9684115234375,699.3680084472657,191.97631152343752,695.1145084472656C191.9921115234375,690.8609084472656,188.9673115234375,685.6228084472656,185.2652115234375,683.4881084472656L149.7402815234375,662.9765934472656Z"></path>
            </g>
            <g>
                <path style="mix-blend-mode:passthrough" fill-opacity="1" fill="#9AD898"
                      d="M369.6640620117187,79.28917172851563C368.3250620117187,78.48577172851563,366.43406201171877,78.75357172851562,364.29206201171877,79.83267172851562L91.82916201171875,237.13477172851563C87.80406201171874,239.55277172851564,84.58236201171874,244.9167717285156,84.58236201171874,249.75377172851563L85.11806201171875,435.50777172851565C85.11806201171875,437.9257717285156,85.92146201171875,439.7997717285156,87.26846201171875,440.61177172851563L67.96209201171875,429.07977172851565C66.62301201171876,428.2687717285156,65.81169101171875,426.66177172851565,65.81169101171875,424.24377172851564L65.27606201171875,238.22177172851562C65.27606201171875,233.65277172851563,68.50560201171875,228.02077172851563,72.25501201171875,225.87077172851562L344.71806201171876,68.56872172851563C346.86806201171873,67.22964472851562,348.7510620117188,67.22964472851562,350.09006201171877,68.03308872851562L369.6640620117187,79.28917172851563Z"></path>
            </g>
            <g>
                <path style="mix-blend-mode:passthrough" fill-opacity="1" fill="#75CA75"
                      d="M364.33907177734375,79.87991219726563C368.45107177734377,77.50895219726563,371.7200717773438,79.17099019726562,371.73607177734374,83.89715219726563L372.2630717773437,269.8085021972656C372.27907177734374,274.7315021972656,369.03407177734374,280.35550219726565,364.91407177734374,282.72650219726563L328.58607177734376,303.70250219726563L328.80607177734373,382.4795021972656L256.42507177734376,345.36350219726563L92.41202177734375,440.06050219726563C88.47355177734374,442.33650219726565,85.19675477734376,440.4775021972656,85.18888077734375,435.5545021972656L84.66112518314375,249.64350219726563C84.64537047734375,244.91750219726563,87.89066177734375,239.48950219726564,91.82912177734374,237.21350219726563L364.33907177734375,79.87991219726563Z"></path>
            </g>
            <g>
                <path style="mix-blend-mode:passthrough" fill-opacity="1" fill="#FFFFFF"
                      d="M216.6704921875,267.7211631347656C213.3148921875,267.7211631347656,210.2035921875,266.93346313476565,207.4387921875,265.34226313476563C200.8457621875,261.54556313476564,197.1908721875,253.69236313476563,197.1672515865,243.2474631347656C197.0963592875,222.6335631347656,211.6449921875,197.43536313476562,229.5807921875,187.08505313476562C238.7101921875,181.80751013476564,247.3983921875,181.01194313476563,254.0622921875,184.85588313476563C260.64739218750003,188.64468313476561,264.29439218749997,196.42706313476563,264.3179921875,206.75376313476562C264.37319218749997,227.44636313476562,249.7850921875,252.73136313476562,231.78639218749998,263.12886313476565C226.4930921875,266.1772631347656,221.3493921875,267.7211631347656,216.6626921875,267.7211631347656L216.6704921875,267.7211631347656ZM243.8300921875,189.04643313476564C240.0885921875,189.04643313476564,235.8980921875,190.33036313476563,231.5184921875,192.85096313476564C215.8118921875,201.91736313476562,203.0828121875,223.9648631347656,203.1300821875,242.01086313476563C203.1537121875,250.38406313476563,205.9027521875,256.55956313476565,210.8573921875,259.4188631347656C215.8276921875,262.2702631347656,222.5781921875,261.56136313476566,229.8564921875,257.3550631347656C245.6102921875,248.25726313476562,258.4024921875,226.11526313476563,258.3472921875,207.99826313476564C258.3236921875,199.7432631347656,255.59039218750002,193.62296313476563,250.6436921875,190.7714731347656C248.5650921875,189.6029531347656,246.2144921875,189.00509313476562,243.83019218750002,189.03854313476563L243.8300921875,189.04643313476564Z"></path>
            </g>
            <g>
                <path style="mix-blend-mode:passthrough" fill-opacity="1" fill="#FFFFFF"
                      d="M245.33511059570313,216.59961235351562C245.45311059570312,226.00461235351563,238.86011059570313,237.24501235351562,230.79411059570313,241.88451235351562C222.72811059570313,246.53191235351562,216.12711059570313,242.86911235351562,216.12711059570313,233.45621235351564C216.12711059570313,224.29541235351562,222.60211059570312,212.9289123535156,230.66811059570313,208.28941235351562C238.73411059570313,203.6421123535156,245.33511059570313,207.31271235351562,245.33511059570313,216.59961235351562ZM235.25211059570313,172.22891235351562L235.30711059570314,188.9280123535156L229.50211059570313,188.94371235351562L229.44711059570312,172.24465945351562L235.25211059570313,172.22891235351562ZM235.49611059570313,261.45081235351563L235.5511105957031,278.0079123535156L229.74611059570313,278.02391235351564L229.69111059570312,261.46661235351564L235.49611059570313,261.45081235351563ZM275.4401105957031,198.88441235351561L278.35511059570314,203.90991235351564L263.8451105957031,212.31461235351563L260.9311105957031,207.28911235351563L275.4401105957031,198.88441235351561ZM197.82101059570311,239.63961235351564L200.73551059570312,244.6651123535156L186.21041059570314,253.07761235351563L183.29601059570314,248.04431235351564L197.82101059570311,239.63961235351564ZM136.49921059570312,355.87191235351565L136.51491059570313,361.38491235351563L127.17291059570313,366.7729123535156L127.25171059570313,396.51691235351564L122.07654059570312,399.50991235351563L121.99777059570313,369.76591235351566L112.64786529570313,375.1619123535156L112.63211059570312,369.6479123535156L136.49921059570312,355.87191235351565ZM160.05121059570314,364.79591235351563L168.0384105957031,372.9719123535156L161.47691059570312,376.76091235351566L154.11991059570312,369.2389123535156L147.29841059570313,373.1769123535156L147.33001059570313,384.92991235351565L142.1548105957031,387.9229123535156L142.05241059570312,352.6579123535156L153.41881059570312,346.0959123535156C158.0898105957031,343.4019123535156,161.50051059570313,342.44891235351565,163.52491059570312,343.0239123535156C165.55711059570314,343.7409123535156,166.57331059570313,346.06491235351564,166.58111059570314,349.9799123535156C166.69601059570311,355.64091235351566,164.30301059570314,361.06491235351564,160.04331059570313,364.79591235351563L160.05121059570314,364.79591235351563ZM153.72601059570312,364.08691235351563C156.62471059570314,362.40891235351563,158.64911059570312,360.6689123535156,159.64951059570313,359.06991235351563C160.78371059570313,357.39191235351564,161.28791059570312,355.36691235351566,161.28001059570312,353.0439123535156C161.2721105957031,350.7199123535156,160.7601105957031,349.41991235351566,159.62581059570311,349.3419123535156C158.60971059570312,349.05791235351563,156.5932105957031,349.79091235351564,153.81261059570312,351.3899123535156L147.24331059570312,355.1859123535156L147.28271059570312,367.80491235351565L153.72601059570312,364.08691235351563ZM188.77041059570314,325.6869123535156L202.38181059570314,353.14591235351566L196.8285105957031,356.3519123535156L193.77231059570312,350.1209123535156L178.4911105957031,358.94391235351566L175.36391059570312,368.74191235351566L169.81071059570314,371.9479123535156L183.21721059570314,328.8929123535156L188.77041059570314,325.6869123535156ZM180.4997105957031,352.2639123535156L191.60611059570311,345.84391235351563L186.0135105957031,334.5489123535156L180.4997105957031,352.2639123535156ZM221.09711059570313,306.3019123535156C225.89411059570313,303.52891235351564,229.81711059570313,303.15091235351565,232.98411059570313,305.39591235351566L229.7071105957031,311.5009123535156C228.45111059570314,310.7409123535156,226.99911059570314,310.3649123535156,225.53211059570313,310.4219123535156C224.2721105957031,310.5709123535156,222.75111059570312,311.15391235351564,220.98711059570314,312.17791235351564C217.83611059570313,313.99791235351563,215.3081105957031,316.6209123535156,213.16511059570314,320.1809123535156C211.03061059570314,323.74191235351566,210.02241059570312,327.22291235351565,210.03811059570313,330.7049123535156C210.03811059570313,334.3279123535156,211.06211059570313,336.7939123535156,213.22011059570312,337.87291235351563C215.24511059570312,339.17991235351565,217.77311059570314,338.8809123535156,220.68011059570313,337.2029123535156C222.44411059570314,336.1789123535156,223.9571105957031,335.02091235351566,225.2171105957031,333.56391235351566C226.60311059570313,332.03591235351564,227.86411059570312,330.29491235351566,229.25011059570312,327.8929123535156L232.66811059570313,329.8459123535156C229.40011059570313,335.9509123535156,225.49311059570311,340.2439123535156,220.82211059570312,342.9379123535156C216.15111059570313,345.63191235351565,212.35401059570313,346.0809123535156,209.32131059570312,344.4889123535156C206.14701059570314,342.8349123535156,204.6188105957031,339.3539123535156,204.60311059570313,334.1309123535156C204.59521059570312,328.90891235351563,206.21781059570313,323.60791235351564,209.24261059570313,318.37691235351565C212.39341059570313,313.0679123535156,216.30011059570313,309.0669123535156,221.09711059570313,306.3019123535156ZM264.66511059570314,281.8759123535156L252.32911059570313,304.54591235351563L265.01111059570314,316.9909123535156L258.82811059570315,320.55891235351567L248.55611059570313,311.08291235351567L244.14511059570313,319.1489123535156L244.1771105957031,329.01091235351566L239.00111059570312,332.0039123535156L238.89911059570312,296.74691235351565L244.07411059570313,293.7539123535156L244.12911059570314,311.0199123535156L258.0951105957031,285.66491235351566L264.66511059570314,281.8759123535156ZM274.88911059570313,275.96791235351566L274.9831105957031,311.2249123535156L269.8081105957031,314.21791235351566L269.7141105957031,278.9609123535156L274.88911059570313,275.96791235351566ZM311.6351105957031,254.75541235351562L311.7291105957031,290.0129123535156L306.1761105957031,293.21891235351563L288.6811105957031,277.59891235351563L288.75211059570313,303.2769123535156L283.56911059570314,306.27091235351566L283.4751105957031,271.0134123535156L288.65011059570315,268.02011235351563L306.53011059570315,284.1519123535156L306.4521105957031,257.7408123535156L311.6351105957031,254.75541235351562ZM334.10711059570315,241.05751235351562C338.5191105957031,238.50531235351562,342.18911059570314,237.83581235351562,345.23011059570314,238.9937123535156L342.4651105957031,245.09041235351563L338.79411059570316,244.88561235351563C337.5341105957031,245.03531235351562,336.14011059570316,245.6891123535156,334.6191105957031,246.56341235351562C331.4691105957031,248.39091235351563,328.8221105957031,251.07691235351564,326.8061105957031,254.56641235351563C324.6711105957031,258.12671235351564,323.66311059570313,261.6162123535156,323.6781105957031,265.3893123535156C323.6861105957031,269.15451235351566,324.7021105957031,271.61991235351564,326.73511059570313,272.6359123535156C328.75911059570313,273.78591235351564,331.28811059570313,273.4869123535156,334.19411059570314,271.80901235351564C337.1011105957031,270.1312123535156,339.4951105957031,268.02801235351563,341.5121105957031,265.40501235351564L341.48011059570314,255.68491235351564L346.65511059570315,252.69171235351564L346.6951105957031,264.7434123535156C343.7961105957031,270.18631235351563,339.6371105957031,274.3379123535156,334.2101105957031,277.47291235351565C329.66511059570314,280.09591235351564,325.8681105957031,280.54491235351566,322.82811059570315,278.9529123535156C319.7871105957031,277.22091235351564,318.25911059570313,273.74691235351565,318.2431105957031,268.51641235351565C318.23511059570313,263.29401235351565,319.74011059570313,258.0716123535156,322.8831105957031,252.76261235351564C326.0341105957031,247.46141235351564,329.68911059570314,243.6017123535156,334.10711059570315,241.05751235351562Z"></path>
            </g>
            <g>
                <path style="mix-blend-mode:passthrough" fill-opacity="1" fill="#FED57A"
                      d="M742.7543640136719,279.1819248535156C744.0934140136719,278.3785248535156,745.9760440136719,278.64632485351564,748.1264340136719,279.71762485351564L960.3303640136719,402.2277248535156C964.3483640136719,404.6457248535156,967.5773640136719,410.01772485351563,967.5773640136719,414.84572485351566L967.0343640136718,600.6077248535156C967.0343640136718,603.0257248535156,966.2303640136719,604.9007248535156,964.8913640136718,605.7037248535156L984.1903640136719,594.1727248535155C985.5293640136719,593.3687248535157,986.3403640136719,591.7617248535156,986.3403640136719,589.3437248535156L986.876364013672,403.3147248535156C986.876364013672,398.74572485351564,983.6543640136719,393.11372485351563,979.8973640136719,390.97172485351564L767.6927640136719,268.44567485351564C765.5501640136719,267.1065978535156,763.6754640136719,267.1065978535156,762.3285640136719,267.91003385351564L742.7543640136719,279.1819248535156Z"></path>
            </g>
            <g>
                <path style="mix-blend-mode:passthrough" fill-opacity="1" fill="#F9BB4A"
                      d="M748.0713787792969,279.7725523535156C743.9596287792968,277.3937023535156,740.6985777792969,279.06362935351564,740.6828307792969,283.7897923535156L740.1550598144969,469.69266235351563C740.1393127792969,474.61566235351563,743.3846087792969,480.24766235351564,747.4963687792969,482.6116623535156L783.8325987792969,503.59566235351565L783.6119987792969,582.3646623535155L855.9849987792969,545.2486623535156L959.7479987792968,605.1606623535156C963.6859987792968,607.4286623535156,966.9549987792968,605.5696623535157,966.9709987792969,600.6466623535157L967.4989987792969,414.73566235351564C967.5069987792969,410.00966235351564,964.2689987792969,404.59066235351565,960.3229987792969,402.3136623535156L748.0713787792969,279.7725523535156Z"></path>
            </g>
            <g>
                <path style="mix-blend-mode:passthrough" fill-opacity="1" fill="#363A44"
                      d="M408.19779741210937,633.3675506347656C408.11909741210934,642.8199506347656,404.92109741210936,649.4443506347657,399.7143974121094,652.5006506347656L362.93699741210935,673.7919506347656C368.15159741210937,670.8144506347656,371.4204974121094,664.1112506347656,371.4204974121094,654.6510506347656C371.4992974121094,636.4159506347656,359.43969741210935,614.5338506347656,344.48139741210935,605.8928506347656C337.17949741210936,601.7259506347656,330.6259174121094,601.3557506347656,325.7185974121094,604.1835506347657L362.4171974121094,582.8923006347657C367.33239741210934,579.9936206347656,373.95689741210936,580.3716736347657,381.1720974121094,584.5307306347656C396.1382974121094,593.1717506347657,408.26869741210936,615.0538506347656,408.19779741210937,633.3675506347656ZM605.6405974121094,751.0646506347656C605.5775974121093,759.7766506347656,602.6235974121093,765.8736506347657,597.8185974121094,768.6926506347656L563.9325974121093,788.3066506347657C568.7375974121094,785.5656506347657,571.7545974121094,779.3976506347656,571.7545974121094,770.6856506347656C571.8255974121093,753.8766506347656,560.7105974121093,733.7036506347656,546.9185974121094,725.7476506347656C540.1995974121094,721.9046506347656,534.1575974121093,721.5656506347657,529.6285974121093,724.1726506347657L563.4515974121093,704.5516506347656C567.9815974121094,701.8736506347657,574.0855974121093,702.2196506347657,580.7415974121094,706.0556506347656C594.5265974121094,714.0116506347656,605.7115974121093,734.1846506347656,605.6405974121094,751.0646506347656Z"></path>
            </g>
            <g>
                <path style="mix-blend-mode:passthrough" fill-opacity="1" fill="#D4DAE8"
                      d="M272.7305603027344,436.7440490722656L273.1795353027344,595.7790490722656L499.1135603027344,727.0720490722656L498.66456030273434,568.0370490722656L272.7305603027344,436.7440490722656Z"></path>
            </g>
            <g>
                <path style="mix-blend-mode:passthrough" fill-opacity="1" fill="#CAD0DD"
                      d="M498.6643371582031,568.0365389160156L499.11331215820314,727.0716389160157L625.2703371582031,654.2336389160156L624.8213371582032,495.1986389160156L498.6643371582031,568.0365389160156Z"></path>
            </g>
            <g>
                <path style="mix-blend-mode:passthrough" fill-opacity="1" fill="#E4E8F4"
                      d="M272.7305603027344,436.7439709472656L498.66456030273434,568.0369709472657L624.8215603027344,495.1989709472656L398.8955603027344,363.9139709472656L272.7305603027344,436.7439709472656Z"></path>
            </g>
            <g>
                <path style="mix-blend-mode:passthrough" fill-opacity="1" fill="#CAD0DD"
                      d="M302.0721130371094,436.7910053222656L398.87161303710934,380.9042053222656L595.4801130371094,495.1592053222656L498.68811303710936,551.0462053222657L302.0721130371094,436.7910053222656Z"></path>
            </g>
            <g>
                <path style="mix-blend-mode:passthrough" fill-opacity="1" fill="#F9607F"
                      d="M499.0818176269531,597.9610498535156L627.9168176269532,801.5483498535157L751.2618176269532,729.2143498535156L751.2618176269532,681.0623498535156L696.2968176269532,568.0603498535156L622.2058176269531,525.6273498535156L499.0818176269531,597.9610498535156Z"></path>
            </g>
            <g>
                <path style="mix-blend-mode:passthrough" fill-opacity="1" fill="#FA5168"
                      d="M499.0502624511719,598.0165100097656L499.0502624511719,727.0875100097657L628.0192624511719,801.5715100097657L628.0192624511719,753.2625100097656L573.1326624511719,640.4102100097656L499.0502624511719,598.0165100097656Z"></path>
            </g>
            <g>
                <path style="mix-blend-mode:passthrough" fill-opacity="1" fill="#F9607F"
                      d="M696.2958474121094,568.0599670410156L573.1248474121094,640.4094670410157L628.0112474121094,753.2619670410156L751.2538474121094,681.0619670410156L696.2958474121094,568.0599670410156Z"></path>
            </g>
            <g>
                <g>
                    <path style="mix-blend-mode:passthrough" fill-opacity="1" fill="#FA5168"
                          d="M692.6020853417969,580.3876037597656L688.6872253417969,582.6876537597657L734.0268253417969,675.8874037597657L739.8872253417969,677.5888037597656L692.6020853417969,580.3876037597656Z"></path>
                </g>
                <g>
                    <path style="mix-blend-mode:passthrough" fill-opacity="1" fill="#FA5168"
                          d="M734.0263962402344,675.8876037597656L629.8623962402344,736.9022037597656L631.8001362402343,740.8880037597656L739.8873962402344,677.5890237597656L734.0263962402344,675.8876037597656Z"></path>
                </g>
            </g>
            <g>
                <path style="mix-blend-mode:passthrough" fill-opacity="1" fill="#576CFB"
                      d="M688.6796477050782,582.6874084472656L584.5149477050782,643.8123084472657L629.8626477050782,736.9014084472656L734.0266477050782,675.8950084472656L688.6796477050782,582.6874084472656ZM597.4488477050782,728.9544084472657L559.7498477050781,651.6972084472657L519.0576477050781,628.4130084472656L519.0576477050781,682.6692084472656L597.4488477050782,728.9544084472657Z"></path>
            </g>
            <g>
                <g>
                    <path style="mix-blend-mode:passthrough" fill-opacity="1" fill="#F9607F"
                          d="M519.0577087792968,628.4129986425781L514.7174987792969,625.9238586425781L514.7174987792969,684.5911586425781L519.0577087792968,682.6691586425782L519.0577087792968,628.4129986425781Z"></path>
                </g>
                <g>
                    <path style="mix-blend-mode:passthrough" fill-opacity="1" fill="#F9607F"
                          d="M600.5365987792969,735.2552758300782L597.4487987792969,728.9537758300781L519.0577087792968,682.6689758300781L514.7174987792969,684.5909758300782L600.5365987792969,735.2552758300782Z"></path>
                </g>
            </g>
            <g>
                <path style="mix-blend-mode:passthrough" fill-opacity="1" fill="#E63044"
                      d="M583.4830531738281,770.8668865722657C583.4830531738281,772.4973865722657,583.3727531738282,774.1357865722656,583.1365531738281,775.6481865722657L510.8657531738281,733.9161865722656C513.5439131738282,720.0528265722656,523.2246531738281,710.9549865722656,536.2766531738281,710.9549865722656C541.6330531738281,710.9549865722656,547.2334531738281,712.5854765722656,552.7158531738281,715.7362965722656C570.0844531738281,725.7557865722656,583.4831531738281,749.8906865722656,583.4831531738281,770.8747865722656L583.4830531738281,770.8668865722657Z"></path>
            </g>
            <g>
                <path style="mix-blend-mode:passthrough" fill-opacity="1" fill="#5B5E71"
                      d="M546.8474056152344,725.7404493847656C560.6478056152343,733.7040193847656,571.7779056152344,753.8453193847656,571.7306056152344,770.7019193847656C571.6834056152344,787.5585193847656,560.4666056152344,794.7501193847656,546.6820056152344,786.7866193847656C532.8817056152344,778.8230193847656,521.6570740152343,758.6817193847656,521.7121887202344,741.8251193847656C521.7594299152344,724.9684793847656,533.0550056152343,717.7689493847656,546.8474056152344,725.7404493847656Z"></path>
            </g>
            <g>
                <path style="mix-blend-mode:passthrough" fill-opacity="1" fill="#CAD0DD"
                      d="M546.7844382324218,732.2856090722656C558.3005382324219,738.9337490722656,567.6189382324219,755.0735490722657,567.5795382324219,768.2989490722656C567.5402382324219,781.5715490722656,558.1666382324219,786.8727490722656,546.6506382324219,780.2245490722656C535.1345482324218,773.5843490722656,525.8240051324219,757.4839490722657,525.8554992676219,744.2191490722656C525.8948669324219,730.9859290722657,535.2762782324219,725.6453590722656,546.7844382324218,732.2856090722656Z"></path>
            </g>
            <g>
                <path style="mix-blend-mode:passthrough" fill-opacity="1" fill="#525566"
                      d="M540.4040919433594,758.3504662597657C540.2768919433594,758.2763662597656,540.1385919433594,758.2230662597656,539.9944919433593,758.1928662597657L531.5425119433594,756.3733662597656C533.2204919433593,761.0692662597656,535.7402619433594,765.4201662597657,538.9783019433594,769.2126662597657L541.6406919433593,761.0363662597656C541.9321919433594,760.1935662597656,541.2468919433594,758.8387662597656,540.4040919433594,758.3504662597657ZM530.5894469433593,740.9030462597656C530.0301819433594,742.4784262597656,529.7387390433594,744.3452462597656,529.7229919433594,746.4641662597656C529.7229919433594,748.5751662597656,530.0065609433594,750.7649662597656,530.5500789433594,752.9940662597656L538.4112219433594,752.8129662597656C539.3643519433593,752.8050662597657,539.3722219433594,751.2454662597656,538.4112219433594,750.1347662597656L530.5894469433593,740.9030462597656ZM539.0729019433594,734.4281921397657C535.9880019433593,734.3694152597657,533.1175819433594,736.0010662597656,531.5898119433593,738.6817362597657L540.0259919433594,746.5901662597656C540.1677919433594,746.7240662597657,540.3016919433594,746.8264662597657,540.4434919433594,746.9052662597657C541.2862919433594,747.3935662597656,541.9636919433593,746.8264662597657,541.6801919433594,745.6449662597656L539.0729019433594,734.4281921397657ZM546.7686919433594,736.7519262597656C545.1395919433594,735.7752362597656,543.3623919433594,735.0702212597656,541.5068919433594,734.6645202597656L545.5792919433594,746.0623662597657C545.7823919433594,746.6790662597656,546.1911919433594,747.2074662597656,546.7371919433593,747.5590662597656C547.1939919433594,747.8189662597656,547.6586919433594,747.8111662597656,547.9028919433594,747.4015662597657L552.0303919433594,740.7455162597656C550.4410919433594,739.2102962597656,548.6747919433594,737.8697162597656,546.7686919433594,736.7519262597656ZM552.9756919433594,765.6050662597656C552.1328919433594,765.1245662597656,551.4632919433594,765.6995662597657,551.7310919433594,766.8653662597657L554.3619919433594,778.0978662597656C557.4337919433593,778.1370662597657,560.2879919433594,776.5172662597656,561.8293919433594,773.8600662597656L553.3852919433593,765.9201662597657C553.2615919433593,765.7992662597657,553.1241919433594,765.6935662597656,552.9756919433594,765.6050662597656ZM546.6898919433594,764.9828662597656C546.2250919433594,764.7228662597656,545.7682919433594,764.7228662597656,545.5240919433594,765.1167662597657L541.3965919433593,771.7727662597656C543.0507919433594,773.3480662597656,544.8151919433594,774.7108662597657,546.6583919433593,775.7663662597656C548.4936919433594,776.8296662597656,550.2580919433594,777.5149662597656,551.9200919433594,777.8537662597656L547.8477919433594,766.4636662597657C547.6418919433594,765.8524662597656,547.2333919433594,765.3299662597656,546.6898919433594,764.9828662597656ZM554.4564919433594,743.3055162597657L551.7783919433593,751.4738662597656C551.5026919433594,752.3324662597656,552.1721919433594,753.6794662597656,553.0071919433594,754.1599662597656C553.1410919433594,754.2387662597656,553.2828919433593,754.2938662597657,553.4246919433593,754.3174662597656L561.8844919433594,756.1606662597657C560.2245919433594,751.4549662597656,557.7089919433594,747.0965662597656,554.4644919433593,743.3055162597657L554.4564919433594,743.3055162597657ZM562.8848919433594,759.5476662597656L555.0078919433594,759.7130662597656C554.0704919433593,759.7367662597657,554.0626919433594,761.2884662597656,554.9921919433593,762.3912662597656L562.8453919433593,771.6387662597656C563.3967919433594,770.0397662597657,563.7039919433594,768.1886662597656,563.7118919433594,766.0776662597656C563.7118919433594,763.9666662597656,563.4203919433594,761.7532662597656,562.8847919433593,759.5398662597656L562.8848919433594,759.5476662597656Z"></path>
            </g>
            <g>
                <path style="mix-blend-mode:passthrough" fill-opacity="1" fill="#BAC1CE"
                      d="M384.1574810058594,654.8557646972656C384.1574810058594,656.6280646972656,384.0314810058594,658.4004646972656,383.7715810058594,660.0467646972656L305.3567810058594,614.7622646972657C308.2712410058594,599.7173746972657,318.76328100585937,589.8475646972656,332.9259810058594,589.8475646972656C338.7470810058594,589.8475646972656,344.82018100585935,591.6198446972656,350.7593810058594,595.0306046972656C369.60888100585936,605.9086646972656,384.15758100585936,632.0915646972657,384.1574810058594,654.8557646972656Z"></path>
            </g>
            <g>
                <path style="mix-blend-mode:passthrough" fill-opacity="1" fill="#5B5E71"
                      d="M344.39481284179686,605.8929131347656C359.36881284179685,614.5339131347656,371.4441128417969,636.3766131347656,371.39691284179685,654.6826131347656C371.3497128417969,672.9885131347656,359.1877128417969,680.7788131347656,344.2136128417969,672.1378131347656C329.2396128417969,663.4968131347656,317.0697631417969,641.6384131347656,317.11703491179685,623.3403131347657C317.1721801417969,605.0422031347656,329.4287128417969,597.2440531347656,344.39481284179686,605.8850431347656L344.39481284179686,605.8929131347656Z"></path>
            </g>
            <g>
                <path style="mix-blend-mode:passthrough" fill-opacity="1" fill="#CAD0DD"
                      d="M344.3317670410156,612.9982562597656C356.8245670410156,620.2135162597656,366.93856704101563,637.7239162597656,366.8912670410156,652.0678162597657C366.8518670410156,666.4826162597657,356.67496704101563,672.2327162597657,344.18216704101565,665.0174162597656C331.6893670410156,657.8021162597656,321.57534794101565,640.3390162597656,321.6226196290156,625.9400162597656C321.6620178410156,611.5804162597656,331.8389670410156,605.7829862597656,344.3317670410156,612.9982562597656Z"></path>
            </g>
            <g>
                <path style="mix-blend-mode:passthrough" fill-opacity="1" fill="#525566"
                      d="M337.4079392089844,641.2764084472656C337.2686392089844,641.1948084472656,337.1169392089844,641.1363084472656,336.95893920898436,641.1031084472656L327.79021920898435,639.1339084472656C329.6100192089844,644.2301084472656,332.34334920898436,648.9520084472656,335.8562392089844,653.0681084472657L338.74703920898435,644.1908084472657C339.0621392089844,643.2771084472656,338.3295392089844,641.8041084472657,337.4079392089844,641.2764084472656ZM326.75045820898436,622.3402984472656C326.1046452089844,624.2853084472656,325.7904358089844,626.3250084472656,325.82098388898436,628.3740084472656C325.82098388898436,630.6662084472656,326.12030020898436,633.0451084472656,326.71896320898435,635.4633084472656L335.24178920898436,635.2664084472656C336.2815392089844,635.2585084472656,336.2815392089844,633.5728084472656,335.24966920898436,632.3677084472656L326.75045820898436,622.3402984472656ZM335.95853920898435,615.3140563972656C332.61507920898435,615.2511901472657,329.50387920898436,617.0182184472657,327.8453692089844,619.9220284472656L336.99833920898436,628.5158084472656C337.14803920898436,628.6576084472656,337.2976392089844,628.7757084472656,337.4473392089844,628.8545084472656C338.3610392089844,629.3901084472657,339.1014392089844,628.7678084472657,338.78643920898435,627.4917084472656L335.95853920898435,615.3140563972656ZM344.30813920898436,617.8346884472656C342.5398392089844,616.7762784472657,340.6110392089844,616.0127254472657,338.59733920898435,615.5740054472657L343.0163392089844,627.9408084472657C343.23933920898435,628.6074084472656,343.6841392089844,629.1773084472657,344.27663920898436,629.5555084472657C344.78073920898436,629.8469084472656,345.2770392089844,629.8391084472656,345.5369392089844,629.3980084472656L350.01893920898436,622.1669584472656C348.2939392089844,620.5014384472656,346.3768392089844,619.0470884472657,344.30813920898436,617.8346884472656ZM351.0507392089844,649.1533084472657C350.1370392089844,648.6255084472656,349.41233920898435,649.2557084472656,349.6959392089844,650.5160084472657L352.5552392089844,662.7095084472656C356.0211392089844,662.6780084472656,358.8646392089844,661.0553084472656,360.6606392089844,658.1015084472656L351.4918392089844,649.4920084472657C351.3585392089844,649.3623084472656,351.21053920898436,649.2486084472656,351.0507392089844,649.1533084472657ZM344.22143920898435,648.4759084472656C343.72523920898436,648.1923084472656,343.2289392089844,648.1923084472656,342.9611392089844,648.6177084472656L338.48703920898436,655.8408084472657C340.2751392089844,657.5580084472656,342.18923920898436,659.0231084472656,344.18993920898436,660.1732084472657C346.1828392089844,661.3311084472656,348.0969392089844,662.0715084472656,349.90073920898436,662.4417084472657L345.4896392089844,650.0750084472656C345.26353920898435,649.4142084472657,344.8189392089844,648.8502084472656,344.22933920898436,648.4760084472656L344.22143920898435,648.4759084472656ZM352.6576392089844,624.9554184472656L349.7432392089844,633.8169084472656C349.45173920898435,634.7464084472656,350.1685392089844,636.2036084472657,351.0822392089844,636.7314084472656C351.22163920898436,636.8130084472656,351.3732392089844,636.8715084472656,351.5312392089844,636.9047084472656L360.71573920898436,638.9054084472656C358.91273920898436,633.7984084472656,356.1807392089844,629.0688084472656,352.6576392089844,624.9554184472656ZM361.7949392089844,642.5761084472656L353.2484392089844,642.7572084472656C352.2323392089844,642.7808084472656,352.2244392089844,644.4665084472656,353.2405392089844,645.6559084472656L361.7634392089844,655.6990084472657C362.3541392089844,653.9661084472656,362.6850392089844,651.9575084472656,362.69283920898437,649.6652084472656C362.69283920898437,647.3652084472657,362.37783920898437,644.9706084472656,361.7949392089844,642.5761084472656Z"></path>
            </g>
            <g>
                <path style="mix-blend-mode:passthrough" fill-opacity="1" fill="#5B5E71"
                      d="M751.2696286621094,681.0936584472656L751.2696286621094,729.2531584472656L628.0506286621094,801.5636584472657L628.0506286621094,753.2777584472656L751.2696286621094,681.0936584472656Z"></path>
            </g>
            <g>
                <path style="mix-blend-mode:passthrough" fill-opacity="1" fill="#FED57A"
                      d="M658.7391604980469,749.0403990722656L658.8021604980469,770.8751990722657L634.1237487980469,785.1244990722656L634.0607604980469,763.2817990722656L658.7391604980469,749.0403990722656ZM747.9607604980469,697.5252990722656L748.0237604980468,719.3600990722656L723.3535604980468,733.6094990722656L723.2905604980468,711.7667990722656L747.9607604980469,697.5252990722656Z"></path>
            </g>
            <g>
                <path style="mix-blend-mode:passthrough" fill-opacity="1" fill="#CAD0DD"
                      d="M716.0752796386719,735.0505521972656L716.0752796386719,737.8074521972657L665.6629943386719,766.9126521972656L665.6629943386719,764.1557521972657L716.0752796386719,735.0505521972656ZM716.0595796386718,728.6938521972656L716.0595796386718,731.4507521972656L665.6472473386718,760.5559521972656L665.6472473386718,757.7991521972656L716.0595796386718,728.6938521972656ZM716.0358796386719,722.3293121972656L716.0437796386718,725.0862121972656L665.6315002386718,754.1914521972657L665.6236267386719,751.4345521972656L716.0358796386719,722.3293121972656ZM716.0201796386718,715.9647521972656L716.0280796386719,718.8004421972656L665.6157531786719,747.9056521972657L665.6078796386719,745.0699521972656L716.0201796386718,715.9647521972656Z"></path>
            </g>
            <g>
                <path style="mix-blend-mode:passthrough" fill-opacity="1" fill="#5B5E71"
                      d="M316.4947948730469,488.18009750976563C318.9365948730469,492.26039750976565,320.16539487304686,496.5453975097656,320.1496948730469,501.20069750976563C320.1417948730469,505.76929750976564,318.9680948730469,508.7625975097656,316.5026948730469,510.08589750976563C314.10809487304687,511.36979750976565,310.41379487304687,510.57429750976564,305.41989487304687,507.6912975097656L296.8103948730469,502.71309750976565L296.8891948730469,472.9461975097656L305.7900948730469,478.0898175097656C310.4216948730469,480.7600975097656,313.9662948730469,484.13929750976564,316.4947948730469,488.1722975097656L316.4947948730469,488.18009750976563ZM313.2573948730469,504.9658975097656C314.9272948730469,504.1781975097656,315.7306948730469,502.0592975097656,315.73859487304685,498.7430975097656C315.7542948730469,491.92169750976564,312.3672948730469,486.5417975097656,305.6324948730469,482.6584175097656L301.22139487304685,480.11416750976565L301.15839487304686,500.5626975097656L306.0105948730469,503.36689750976564C309.1928948730469,505.2021975097656,311.58749487304686,505.66689750976565,313.2573948730469,504.9658975097656ZM344.07189487304686,500.18459750976564L344.0639948730469,504.9264975097656L330.2399948730469,496.9471975097656L330.21639487304685,504.8476975097656L342.5909948730469,511.99209750976564L342.57529487304686,516.4819975097656L330.2084948730469,509.3375975097656L330.17699487304685,517.3168975097656L344.43419487304686,525.5482975097656L344.4263948730469,530.2114975097656L325.75809487304684,519.4279975097656L325.83679487304687,489.6531975097656L344.07189487304686,500.18459750976564ZM354.42219487304686,506.1631975097656L354.35129487304687,531.1959975097657L366.22179487304686,538.0488975097657L366.20599487304685,542.7828975097656L349.9952948730469,533.4250975097656L350.0740948730469,503.65039750976564L354.42219487304686,506.1631975097656ZM375.41449487304686,518.2778975097656L375.3274948730469,548.0525975097656L370.97949487304686,545.5398975097656L371.0660948730469,515.7650975097656L375.41449487304686,518.2778975097656ZM404.8584948730469,535.2841975097656L394.3584948730469,559.0330975097656L389.4354948730469,556.1973975097657L379.17149487304687,520.4518975097657L384.01549487304686,523.2481975097656L391.9164948730469,550.1320975097656L399.9424948730469,532.4404975097656L404.8584948730469,535.2841975097656ZM426.78749487304685,547.9423975097657L426.7714948730469,552.6841975097657L412.8764948730469,544.6575975097657L412.86149487304687,552.5581975097656L425.30649487304686,559.7497975097656L425.2904948730469,564.2396975097656L412.84549487304685,557.0480975097656L412.82149487304684,565.0352975097657L427.15749487304686,573.3061975097656L427.13449487304683,577.9611975097656L408.46549487304685,567.1855975097657L408.5444948730469,537.4108975097656L426.78749487304685,547.9423975097657ZM447.7954948730469,579.0641975097656L454.5694948730469,593.7941975097656L448.9924948730469,590.5801975097656L442.8724948730469,577.0471975097656L437.08249487304687,573.7081975097656L437.05149487304686,583.6881975097656L432.71049487304685,581.1831975097656L432.78949487304686,551.4081975097656L442.4154948730469,556.9692975097656C446.4004948730469,559.2692975097656,449.22049487304685,561.7269975097656,450.8824948730469,564.1844975097656C452.6154948730469,566.7681975097656,453.47449487304686,569.6826975097656,453.4664948730469,573.0851975097656C453.45049487304686,577.9931975097657,451.5604948730469,579.9851975097656,447.7954948730469,579.0641975097656ZM442.5964948730469,572.3135975097656C445.0544948730469,573.7311975097656,446.7164948730469,574.2831975097656,447.59049487304685,573.8651975097656C448.5354948730469,573.5741975097657,448.9684948730469,572.4080975097656,448.9764948730469,570.4152975097657C448.9764948730469,568.5011975097657,448.48049487304684,566.8784975097656,447.61449487304685,565.6338975097656C446.6684948730469,564.4208975097656,445.08549487304685,563.0896975097656,442.6984948730469,561.7111975097656L437.1214948730469,558.4894975097657L437.09049487304685,569.1312975097657L442.5964948730469,572.3135975097656ZM479.10549487304684,578.1501975097656L469.43349487304687,590.6351975097656L469.4014948730469,602.3641975097656L464.9114948730469,599.7721975097656L464.9434948730469,588.0511975097656L455.3724948730469,564.4445975097656L460.1464948730469,567.2013975097657L467.2034948730469,584.8461975097656L474.33249487304687,575.3931975097656L479.10549487304684,578.1501975097656ZM407.11849487304687,617.8891975097656L499.1214948730469,671.2001975097656L499.0974948730469,680.7311975097656L391.3174948730469,618.3151975097657L409.8754948730469,598.1341975097656L272.7384948730469,518.9552975097656L272.7621154730469,509.42419750976563L425.7474948730469,597.7401975097656L407.11849487304687,617.8891975097656Z"></path>
            </g>
            <g>
                <path style="mix-blend-mode:passthrough" fill-opacity="1" fill="#4C7891"
                      d="M799.9251403808594,455.6010568847656L907.7601403808594,517.8915568847656C892.7153403808594,488.6995568847656,890.9036403808593,452.78895688476564,890.8012403808593,450.8828568847656C890.9036403808593,439.4455568847656,886.8942403808594,426.81095688476563,880.3722403808594,415.4760568847656C873.8501403808593,404.2356568847656,864.8231403808594,394.4052568847656,854.9927403808593,388.6945168847656C854.6934403808593,388.48971688476564,853.5906403808593,387.8910868847656,853.2913403808594,387.6862768847656C843.3585403808594,381.9676208847656,834.3315403808593,381.3689868847656,827.8094403808594,385.18142688476564C821.1928403808594,388.8914468847656,817.1756403808594,396.91805688476563,817.1756403808594,408.3553568847656C817.0810403808593,410.0567568847656,815.0724403808593,443.95905688476563,799.9251403808594,455.59325688476565L799.9251403808594,455.6010568847656ZM835.9935403808594,492.1495568847656C835.9620403808594,503.4375568847656,843.9177403808594,517.1905568847656,853.7481403808594,522.8625568847656C863.5785403808594,528.5335568847656,871.5499403808594,523.9885568847656,871.5893403808593,512.7005568847657L835.9935403808594,492.1495568847656Z"></path>
            </g>
            <g>
                <path style="mix-blend-mode:passthrough" fill-opacity="1" fill="#416E84"
                      d="M796.8767356933594,453.8685908535156C796.2702326933594,453.5141298535156,795.7897033933593,453.8213198535156,795.7897033933593,454.54602085351564L795.7503356933594,467.57449985351565C795.7503356933594,468.2990998535156,796.2229306933593,469.18139985351564,796.8294956933594,469.53579985351564L835.9935356933594,492.1425998535156L871.5894356933594,512.7013998535156L910.7773356933594,535.3238998535156C911.3523356933594,535.6546998535156,911.8563356933594,535.3395998535157,911.8643356933594,534.6149998535157L911.8953356933594,521.5864998535156C911.8643356933594,520.8057998535156,911.4633356933593,520.0863998535157,910.8163356933594,519.6487998535156L907.7763356933593,517.9000998535156L799.9172656933594,455.6251498535156L796.8767356933594,453.8685908535156Z"></path>
            </g>
            <g>
                <path style="mix-blend-mode:passthrough" fill-opacity="1" fill="#F34858"
                      d="M889.9583028808594,414.5544393847656C881.9317328808594,409.91494938476563,875.4333190808594,413.6249693847656,875.4017639160594,422.7779193847656C875.3781432808594,432.0727193847656,881.8371928808593,443.2579193847656,889.8638028808593,447.88961938476564C897.8274028808594,452.48971938476564,904.3888028808594,448.8190193847656,904.4204028808593,439.52431938476565C904.4440028808593,430.3713193847656,897.9219028808594,419.15456938476564,889.9583028808594,414.5544393847656Z"></path>
            </g>
            <g>
                <path style="mix-blend-mode:passthrough" fill-opacity="1" fill="#4C7891"
                      d="M852.5192915527343,404.92118188476564C843.6893015527344,399.8247818847656,836.7812194527344,387.83608188476563,836.8127136227343,377.6354818847656C836.8284606527344,372.29492188476564,838.7819515527344,368.2383118847656,842.3108215527344,366.2139318847656C845.8554415527344,364.1659238847656,850.4240915527344,364.52825888476565,855.1265915527343,367.2536918847656C863.8147915527344,372.2634318847656,870.8646915527344,384.4489818847656,870.8409915527344,394.3975818847656C870.8252915527344,399.80118188476564,868.8638915527343,403.89718188476564,865.3113915527343,405.94518188476565C863.7832915527343,406.81948188476565,862.0818915527344,407.2526818847656,860.2701915527343,407.2526818847656C857.8440915527344,407.2526818847656,855.2052915527344,406.4649818847656,852.5270915527344,404.92118188476564L852.5192915527343,404.92118188476564ZM844.7999615527344,370.5541418847656C842.8937715527344,371.6569218847656,841.8303515527343,374.1775218847656,841.8224815527344,377.64338188476563C841.7988615527344,386.0716818847656,847.7301915527344,396.3667818847656,855.0320915527344,400.5888818847656C858.0488915527344,402.32178188476564,860.9003915527344,402.7077818847656,862.8065915527344,401.5970818847656C864.7443915527343,400.4785818847656,865.8155915527344,397.9185818847656,865.8234915527344,394.38968188476565C865.8470915527344,386.1740818847656,859.7975915527344,375.73708188476564,852.6216915527343,371.5860018847656C850.7155915527344,370.4911218847656,848.9037915527343,369.93185188476565,847.3362915527343,369.93185188476565C846.4526015527343,369.91519188476565,845.5802915527344,370.1326018847656,844.8078315527343,370.56201188476564L844.7999615527344,370.5541418847656Z"></path>
            </g>
            <g>
                <path style="mix-blend-mode:passthrough" fill-opacity="1" fill="#525566"
                      d="M783.9506481152343,706.2369718847656C775.0103481152344,711.3884618847657,774.8134481152343,719.7773318847657,783.8403581152344,725.0234318847656C792.7177181152343,730.1827318847656,807.1876181152344,730.0883318847656,816.1278181152344,724.9367318847657C825.2178181152344,719.6828318847656,825.4226181152344,711.3017918847656,816.5453181152344,706.1424218847657C807.5104181152344,700.8885218847656,793.0405181152344,700.9830618847657,783.9506481152343,706.2369718847656Z"></path>
            </g>
            <g>
                <path style="mix-blend-mode:passthrough" fill-opacity="1" fill="#E63044"
                      d="M816.0491819824218,661.2202100097657C816.0963819824219,671.5705100097656,808.7787819824218,684.1814100097656,799.7753819824219,689.3801100097656C795.2461819824218,691.9795100097656,791.1580519824219,692.2237100097657,788.1727019824219,690.5380100097657L781.3827819824219,686.5917100097656C784.3760119824219,688.3246100097656,788.4641419824219,688.0883100097657,792.9854819824219,685.4338100097656C801.9887819824219,680.2350100097656,809.3064819824219,667.6320100097656,809.2592819824218,657.2738100097656C809.2592819824218,652.1774600097656,807.4317819824219,648.5619800097656,804.4936819824219,646.8290100097656L811.2756819824219,650.7753600097657C814.2138819824219,652.5082700097656,816.0412819824219,656.0765100097656,816.0412819824219,661.2202100097657L816.0491819824218,661.2202100097657Z"></path>
            </g>
            <g>
                <path style="mix-blend-mode:passthrough" fill-opacity="1" fill="#E63044"
                      d="M818.1129274902344,639.0315859472656C813.3947274902343,636.2904359472657,806.8489274902344,636.6684859472656,799.6337274902344,640.8590359472656C785.3292274902344,649.1455459472656,773.6871074902343,669.1686459472656,773.7343474902344,685.6314459472657C773.7815874902344,700.5975459472656,794.1356274902344,713.7914459472656,798.9089274902344,716.6744459472657L793.0800274902343,713.3109459472656C791.7803274902344,712.5390459472657,766.9916686902344,698.1872459472656,766.9444274902344,681.6850459472656C766.9444274902344,665.2223459472656,778.5471274902344,645.1913459472656,792.8437274902344,636.9126859472656C800.0590274902344,632.7300719472656,806.6126274902343,632.3440859472656,811.3308274902344,635.0852359472656L818.1129274902344,639.0315859472656Z"></path>
            </g>
            <g>
                <path style="mix-blend-mode:passthrough" fill-opacity="1" fill="#F9607F"
                      d="M799.6415694824219,640.8661803222657C813.9932694824219,632.5796803222656,825.6196694824218,639.2041303222657,825.6668694824218,655.6590303222656C825.7062694824219,672.1533303222657,801.1460694824219,714.9958303222656,799.8541694824219,717.2565303222656C798.5545694824219,716.4925303222656,773.7973327824219,702.1249303222656,773.7500915524218,685.6307303222657C773.7107238824219,669.1679303222656,785.3213694824219,649.1369303222656,799.6415694824219,640.8661803222657ZM799.7754694824218,689.3880303222656C808.7787694824219,684.1892303222656,816.0728694824219,671.5625303222656,816.0413694824218,661.2122303222657C816.0177694824218,650.9013303222656,808.6764694824219,646.7187203222657,799.6731694824218,651.9174303222657C790.6698694824219,657.1162303222657,783.3678894824219,669.7429303222656,783.4072594824219,680.0616303222656C783.4308794824219,690.4041303222656,790.7721694824219,694.5867303222656,799.7754694824218,689.3880303222656Z"></path>
            </g>
        </g>
    </g>
</svg>